<?xml version="1.0" encoding="UTF-8"?>
<svg id="Capa_1" data-name="Capa 1" xmlns="http://www.w3.org/2000/svg" viewBox="0 0 391 421">
  <defs>
    <style>
      .cls-1 {
        fill: #fff;
      }
    </style>
  </defs>
  <circle cx="195.5" cy="210.5" r="132.03"/>
  <path class="cls-1" d="M263.89,278.63H127.11c-14.51,0-26.32-11.24-26.32-25.05v-100.45c0-4.28,2.59-8.15,6.61-9.86,1.69-.72,3.47-1,5.24-.88.2-.02.41-.03.62-.03h164.61c.19,0,.38,0,.56.02,1.75-.1,3.5.17,5.17.89,4.02,1.71,6.61,5.58,6.61,9.86v100.45c0,13.81-11.81,25.05-26.32,25.05ZM114.51,159.63v93.96c0,6.25,5.65,11.33,12.6,11.33h136.78c6.95,0,12.6-5.08,12.6-11.33v-93.96l-72.73,69.85c-2.81,2.71-6.82,3.82-10.72,3.05-2.2-.45-4.25-1.54-5.93-3.16l-72.61-69.74ZM194.26,219.59s0,0,0,0h0ZM196.64,219.49h0,0ZM130.62,156.09l64.88,62.31,64.88-62.31h-129.76Z"/>
</svg>