<?xml version="1.0" encoding="UTF-8"?>
<svg id="Capa_1" data-name="Capa 1" xmlns="http://www.w3.org/2000/svg" viewBox="0 0 725 306">
  <defs>
    <style>
      .cls-1 {
        fill: #dd2284;
      }

      .cls-2 {
        fill: #2a4b9a;
      }
    </style>
  </defs>
  <g>
    <path d="M552.88,176l.57-4.64,7.76-8.2c6.74-7.12,11-10.94,11.76-15.77.7-4.96-1.15-8.77-5.66-8.77-3.18.06-6.42,3.12-7.57,8.46h-4.26c1.27-8.65,6.42-13.42,12.27-13.67,6.74-.26,10.68,5.47,9.6,13.1-1.02,7.12-5.34,11-12.65,18.82l-4.83,5.28h14.11l-.64,5.4h-20.47Z"/>
    <path d="M582.51,155.59c1.46-11.95,8.2-22.19,16.72-22.19s12.52,10.24,11,22.19c-1.4,11.83-8.07,21.04-16.4,21.04s-12.72-9.28-11.32-21.04ZM605.97,155.59c1.21-9.92-1.84-16.85-7.44-16.85s-10.49,6.93-11.76,16.85c-1.02,8.96,2.03,15.7,7.76,15.7s10.3-6.74,11.44-15.7Z"/>
    <path d="M615.25,176l.57-4.64,7.76-8.2c6.74-7.12,11-10.94,11.76-15.77.7-4.96-1.15-8.77-5.66-8.77-3.18.06-6.42,3.12-7.57,8.46h-4.26c1.27-8.65,6.42-13.42,12.27-13.67,6.74-.26,10.68,5.47,9.6,13.1-1.02,7.12-5.34,11-12.65,18.82l-4.83,5.28h14.11l-.64,5.4h-20.47Z"/>
    <path d="M644.82,161.63h4.26c-.7,6.61,2.42,9.86,5.79,9.73,4.26-.13,7.31-4.45,8.07-10.11.83-6.36-1.59-10.62-5.09-10.81-3.12-.13-5.85,2.03-8.01,5.91l-3.94-2.16,5.21-20.15h15.96l-.64,5.21h-12.59l-3.18,12.08c2.1-2.93,5.34-4.96,8.77-4.83,5.28.32,8.9,6.1,7.76,14.94-1.14,8.27-6.23,15.07-13.1,15.2-5.53.13-10.43-5.15-9.28-15.01Z"/>
  </g>
  <g>
    <g>
      <g>
        <path d="M426.35,189.87c0-3.34,3.65-5.36,7.46-5.36s7.38,2.02,7.38,5.36-3.65,5.36-7.38,5.36-7.46-2.1-7.46-5.36ZM426.5,236.57v-35.84c0-1.96,1.59-3.55,3.55-3.55h10.98v35.83c0,1.96-1.59,3.55-3.55,3.55h-10.97Z"/>
        <path d="M475.76,235.71c-11.58,4.51-26.18-.23-26.18-15.15v-11.58h-5.44v-12.51c5.16,0,5.5-2.36,5.47-7.61-.01-1.97,1.58-3.58,3.55-3.58h10.95s.08,11.19.08,11.19h8.86v12.51h-8.93v9.56c0,4.07,2.4,5.93,6.25,5.53,1.89-.2,3.61,1.06,3.93,2.93l1.47,8.71Z"/>
        <path d="M493.24,227.63v5.38c0,1.96-1.59,3.55-3.55,3.55h-10.9v-47.73c0-1.96,1.59-3.55,3.55-3.55h10.98v20.74c1.55-6.6,8.08-9.56,13.83-9.63,10.25-.16,18.18,7.46,18.18,20.67,0,11.34-7.85,20.43-19.03,20.28-5.67-.08-11.58-3.81-13.05-9.71ZM510.8,216.99c0-5.44-3.5-8.93-8.47-8.78-4.82.08-8.39,3.34-8.39,8.78,0,4.97,3.65,8.31,8.39,8.39,4.82.16,8.47-3.26,8.47-8.39Z"/>
        <path d="M528.27,216.99c0-13.98,10.64-20.59,21.68-20.59s19.5,6.91,20.82,18.18c.23,1.55.23,3.57,0,5.21h-28.82c.93,3.65,4.27,5.75,8,5.83,2.51.06,4.65-.6,6.19-1.84,1.07-.87,2.57-.99,3.8-.36l8.27,4.23c-3.57,5.9-10.33,9.71-18.26,9.71-11.03,0-21.68-7.46-21.68-20.35ZM557.25,212.09c-1.17-2.56-4.12-4.27-7.3-4.2-2.87,0-5.75,1.63-6.84,4.2h14.14Z"/>
        <path d="M573.88,236.57v-35.84c0-1.96,1.59-3.55,3.55-3.55h10.98v8.86c1.32-6.45,7.69-9.56,13.21-9.63,6.84-.08,11.89,3.34,14.68,9.63,2.87-6.22,9.32-9.79,15.38-9.63,10.1.23,17.64,7.3,17.64,20.35v16.26c0,1.96-1.59,3.55-3.55,3.55h-10.98v-19.89c0-5.13-3.03-8.62-7.85-8.47-5.13.08-7.77,3.26-7.77,8.55v19.81h-14.45v-19.89c0-5.13-3.11-8.62-7.92-8.47-4.66.16-7.77,3.5-7.77,8.47v19.89h-15.15Z"/>
      </g>
      <path d="M652.57,231.21c0-3.34,3.65-5.36,7.46-5.36s7.38,2.02,7.38,5.36-3.65,5.36-7.38,5.36-7.46-2.1-7.46-5.36Z"/>
    </g>
    <g>
      <path d="M376.68,223.28l-.88,7.15h-3.79l4.46-36.3h3.85l-1.93,15.51c1.76-5.06,5.56-7.65,8.8-7.65,5.23-.06,8.91,5.5,7.81,14.63-.99,8.09-6.16,14.41-11.61,14.35-3.19,0-6.16-2.91-6.71-7.7ZM391.14,216.63c.77-6.38-2.03-10.34-5.55-10.28-3.35,0-7.15,3.74-7.98,10.28-.77,5.99,2.25,9.95,5.45,9.95,3.47.06,7.31-3.96,8.08-9.95Z"/>
      <path d="M394.67,231.48c.72,1.98,3.41,2.47,4.95-.88l1.49-3.3-4.62-24.75h3.85l3.19,20.29,8.97-20.29h3.85l-13.75,29.37c-3.25,6.93-8.25,6.55-10.45,2.64l2.53-3.08Z"/>
    </g>
  </g>
  <g>
    <g>
      <path class="cls-2" d="M135.62,97.61l17.74,46.15,18.36-46.15h11.17l-24.19,61.04h-11.17l-23.2-61.04h11.29Z"/>
      <path class="cls-2" d="M237.39,144.13c-3.39,5.05-7.38,8.73-11.97,11.04-4.59,2.32-9.57,3.47-14.95,3.47-4.22,0-8.19-.81-11.91-2.42-3.72-1.61-6.95-3.78-9.68-6.51-2.73-2.73-4.9-5.96-6.51-9.68-1.61-3.72-2.42-7.69-2.42-11.91s.81-8.31,2.42-12.03c1.61-3.72,3.78-6.97,6.51-9.74,2.73-2.77,5.96-4.96,9.68-6.58,3.72-1.61,7.69-2.42,11.91-2.42,5.38,0,10.44,1.24,15.2,3.72,4.75,2.48,8.87,6.33,12.34,11.54l-35.98,33.5c1.32.91,2.98,1.55,4.96,1.92,1.98.37,3.97.43,5.95.19,3.47-.41,6.72-1.59,9.74-3.54,3.02-1.94,5.56-4.4,7.63-7.38l7.07,6.82ZM189.87,126.51c-.25,3.14.17,6.04,1.24,8.68,1.07,2.65,2.61,4.71,4.59,6.2l28.41-27.67c-1.57-1.9-3.68-3.45-6.33-4.65-2.65-1.2-5.54-1.72-8.68-1.55-2.57.17-4.96.74-7.2,1.74-2.23.99-4.2,2.34-5.89,4.03-1.7,1.7-3.08,3.66-4.16,5.89-1.08,2.23-1.74,4.67-1.99,7.32Z"/>
      <path class="cls-2" d="M293.71,158.4v-30.27c0-2.73-.52-5.33-1.55-7.82-1.03-2.48-2.46-4.65-4.28-6.51-1.82-1.86-3.95-3.33-6.39-4.4-2.44-1.07-5.02-1.61-7.75-1.61s-5.29.52-7.69,1.55c-2.4,1.04-4.51,2.46-6.33,4.28-1.82,1.82-3.27,4.01-4.34,6.58-1.08,2.57-1.66,5.38-1.74,8.44v29.78h-10.42v-60.79h10.42v12.78c2.48-4.22,5.71-7.44,9.68-9.68,3.97-2.23,8.35-3.35,13.15-3.35,3.89,0,7.51.74,10.86,2.23,3.35,1.49,6.27,3.54,8.75,6.14,2.48,2.61,4.45,5.71,5.89,9.3,1.45,3.6,2.17,7.55,2.17,11.85v31.51h-10.42Z"/>
      <path class="cls-2" d="M308.35,97.36h5.71v-18.86h10.55v18.86h11.04v8.68h-11.04v33.62c0,2.9.91,5.23,2.73,7.01,1.82,1.78,4.18,2.67,7.07,2.67v9.3c-6.7,0-11.77-1.61-15.2-4.84-3.43-3.23-5.15-7.94-5.15-14.14v-33.62h-5.71v-8.68Z"/>
      <path class="cls-2" d="M349.91,97.61v60.79h-10.42v-60.79h10.42Z"/>
      <path class="cls-1" d="M358.35,128.13c0-4.3.74-8.31,2.23-12.03,1.49-3.72,3.49-6.97,6.02-9.74,2.52-2.77,5.5-4.96,8.93-6.58,3.43-1.61,7.13-2.42,11.1-2.42,4.71,0,9.01,1.14,12.9,3.41,3.89,2.28,7.07,5.32,9.55,9.12v-12.28h10.55v60.79h-10.55v-12.16c-2.48,3.81-5.67,6.82-9.55,9.06-3.89,2.23-8.19,3.35-12.9,3.35-3.97,0-7.67-.81-11.1-2.42-3.43-1.61-6.41-3.78-8.93-6.51-2.52-2.73-4.53-5.96-6.02-9.68-1.49-3.72-2.23-7.69-2.23-11.91ZM368.89,128.13c0,2.73.52,5.32,1.55,7.75,1.03,2.44,2.44,4.57,4.22,6.39,1.78,1.82,3.89,3.25,6.33,4.28,2.44,1.04,5.06,1.55,7.88,1.55s5.31-.52,7.75-1.55c2.44-1.03,4.57-2.46,6.39-4.28s3.27-3.95,4.34-6.39c1.07-2.44,1.61-5.03,1.61-7.75s-.54-5.33-1.61-7.82c-1.08-2.48-2.52-4.63-4.34-6.45-1.82-1.82-3.95-3.27-6.39-4.34-2.44-1.07-5.02-1.61-7.75-1.61s-5.44.54-7.88,1.61c-2.44,1.08-4.55,2.52-6.33,4.34-1.78,1.82-3.19,3.97-4.22,6.45-1.04,2.48-1.55,5.09-1.55,7.82Z"/>
      <path class="cls-1" d="M487.99,128.13c0,4.22-.74,8.19-2.23,11.91-1.49,3.72-3.49,6.95-6.02,9.68-2.52,2.73-5.5,4.9-8.93,6.51-3.43,1.61-7.13,2.42-11.1,2.42-4.71,0-8.99-1.09-12.84-3.29-3.85-2.19-6.97-5.15-9.37-8.87v30.15h-10.42v-79.03h10.42v12.03c2.4-3.72,5.52-6.7,9.37-8.93,3.85-2.23,8.13-3.35,12.84-3.35,3.97,0,7.67.81,11.1,2.42,3.43,1.61,6.41,3.81,8.93,6.58,2.52,2.77,4.53,6.02,6.02,9.74,1.49,3.72,2.23,7.73,2.23,12.03ZM477.57,128.13c0-2.73-.52-5.33-1.55-7.82-1.03-2.48-2.46-4.63-4.28-6.45-1.82-1.82-3.95-3.27-6.39-4.34-2.44-1.07-5.02-1.61-7.75-1.61s-5.29.52-7.69,1.55c-2.4,1.03-4.51,2.44-6.33,4.22-1.82,1.78-3.27,3.85-4.34,6.2-1.08,2.36-1.66,4.86-1.74,7.51v.74c0,2.73.52,5.32,1.55,7.75,1.03,2.44,2.46,4.57,4.28,6.39,1.82,1.82,3.95,3.25,6.39,4.28,2.44,1.04,5.07,1.55,7.88,1.55s5.31-.52,7.75-1.55c2.44-1.03,4.57-2.46,6.39-4.28s3.25-3.95,4.28-6.39c1.03-2.44,1.55-5.03,1.55-7.75Z"/>
      <path class="cls-1" d="M555.86,128.13c0,4.22-.74,8.19-2.23,11.91-1.49,3.72-3.49,6.95-6.02,9.68-2.52,2.73-5.5,4.9-8.93,6.51-3.43,1.61-7.13,2.42-11.1,2.42-4.71,0-8.99-1.09-12.84-3.29-3.85-2.19-6.97-5.15-9.37-8.87v30.15h-10.42v-79.03h10.42v12.03c2.4-3.72,5.52-6.7,9.37-8.93,3.85-2.23,8.13-3.35,12.84-3.35,3.97,0,7.67.81,11.1,2.42,3.43,1.61,6.41,3.81,8.93,6.58,2.52,2.77,4.53,6.02,6.02,9.74,1.49,3.72,2.23,7.73,2.23,12.03ZM545.43,128.13c0-2.73-.52-5.33-1.55-7.82-1.03-2.48-2.46-4.63-4.28-6.45-1.82-1.82-3.95-3.27-6.39-4.34-2.44-1.07-5.02-1.61-7.75-1.61s-5.29.52-7.69,1.55c-2.4,1.03-4.51,2.44-6.33,4.22-1.82,1.78-3.27,3.85-4.34,6.2-1.08,2.36-1.66,4.86-1.74,7.51v.74c0,2.73.52,5.32,1.55,7.75,1.03,2.44,2.46,4.57,4.28,6.39,1.82,1.82,3.95,3.25,6.39,4.28,2.44,1.04,5.07,1.55,7.88,1.55s5.31-.52,7.75-1.55c2.44-1.03,4.57-2.46,6.39-4.28s3.25-3.95,4.28-6.39c1.03-2.44,1.55-5.03,1.55-7.75Z"/>
    </g>
    <polygon class="cls-1" points="347.3 76.81 355.92 76.69 349.02 81.85 351.8 90.01 344.75 85.04 337.85 90.21 340.4 81.97 333.36 77.01 341.98 76.89 344.52 68.65 347.3 76.81"/>
    <g>
      <path class="cls-1" d="M100.98,109.52c-2.65-1.2-5.54-1.72-8.68-1.55-2.56.17-4.96.74-7.2,1.74-2.23.99-4.2,2.34-5.89,4.03-1.7,1.7-3.08,3.66-4.16,5.89-1.08,2.23-1.74,4.67-1.98,7.32-.25,3.14.17,6.04,1.24,8.68,1.07,2.65,2.61,4.71,4.59,6.2l28.41-27.67c-1.57-1.9-3.68-3.45-6.33-4.65Z"/>
      <path class="cls-1" d="M93.72,91.87c-19.95,0-36.13,16.18-36.13,36.13s16.18,36.13,36.13,36.13,36.13-16.18,36.13-36.13-16.18-36.13-36.13-36.13ZM108.61,155.61c-4.59,2.32-9.57,3.47-14.95,3.47-4.22,0-8.19-.81-11.91-2.42-3.72-1.61-6.95-3.78-9.68-6.51-2.73-2.73-4.9-5.96-6.51-9.68-1.61-3.72-2.42-7.69-2.42-11.91s.81-8.31,2.42-12.03c1.61-3.72,3.78-6.97,6.51-9.74,2.73-2.77,5.95-4.96,9.68-6.58,3.72-1.61,7.69-2.42,11.91-2.42,5.38,0,10.44,1.24,15.2,3.72,4.75,2.48,8.87,6.33,12.34,11.54l-35.98,33.5c1.32.91,2.98,1.55,4.96,1.92,1.99.37,3.97.43,5.96.19,3.47-.41,6.72-1.59,9.74-3.54,3.02-1.94,5.56-4.4,7.63-7.38l7.07,6.82c-3.39,5.05-7.38,8.73-11.97,11.04Z"/>
    </g>
  </g>
</svg>