<?xml version="1.0" encoding="UTF-8"?>
<svg id="Capa_1" data-name="Capa 1" xmlns="http://www.w3.org/2000/svg" viewBox="0 0 391 421">
  <defs>
    <style>
      .cls-1 {
        fill-rule: evenodd;
      }

      .cls-1, .cls-2 {
        fill: #fff;
      }
    </style>
  </defs>
  <circle cx="195.5" cy="210.5" r="131.78" transform="translate(-91.59 199.89) rotate(-45)"/>
  <g>
    <path class="cls-2" d="M119.83,286.35l10.99-40.99c-6.22-11.22-9.5-23.8-9.5-36.57,0-41.73,33.96-75.69,75.69-75.69s75.69,33.96,75.69,75.69-33.96,75.69-75.69,75.69c-12.53,0-24.9-3.16-35.98-9.17l-41.21,11.04ZM163.09,259.95l2.6,1.55c9.53,5.68,20.36,8.68,31.34,8.68,33.85,0,61.38-27.54,61.38-61.39s-27.54-61.38-61.38-61.38-61.38,27.54-61.38,61.38c0,11.18,3.1,22.18,8.98,31.83l1.59,2.61-6.13,22.89,23.02-6.17Z"/>
    <path class="cls-2" d="M114.57,291.62l12.28-45.79c-6.05-11.42-9.25-24.19-9.25-37.04,0-43.79,35.63-79.41,79.42-79.41s79.41,35.63,79.41,79.41-35.62,79.42-79.41,79.42c-12.6,0-25.16-3.08-36.43-8.92l-46.02,12.33ZM197.02,136.83c-39.69,0-71.97,32.28-71.97,71.97,0,12.09,3.12,24.11,9.03,34.76l.73,1.32-9.71,36.22,36.42-9.75,1.3.71c10.52,5.7,22.35,8.72,34.2,8.72,39.68,0,71.96-32.28,71.96-71.97s-32.28-71.97-71.96-71.97ZM197.02,273.9c-11.65,0-23.15-3.18-33.24-9.2l-1.24-.75-27.73,7.43,7.39-27.58-.76-1.25c-6.23-10.24-9.52-21.91-9.52-33.77,0-35.9,29.21-65.11,65.11-65.11s65.11,29.21,65.11,65.11-29.21,65.11-65.11,65.11ZM163.64,255.95l3.95,2.36c8.95,5.33,19.12,8.15,29.43,8.15,31.79,0,57.66-25.87,57.66-57.66s-25.87-57.66-57.66-57.66-57.66,25.87-57.66,57.66c0,10.49,2.92,20.83,8.43,29.89l2.42,3.97-4.87,18.2,18.3-4.91Z"/>
  </g>
  <path class="cls-1" d="M223.53,221.47c-3.12-1.86-7.17-3.94-10.84-2.44-2.82,1.15-4.61,5.56-6.44,7.81-.94,1.16-2.05,1.34-3.49.76-10.57-4.21-18.67-11.27-24.5-20.99-.99-1.51-.81-2.7.38-4.1,1.76-2.07,3.97-4.43,4.45-7.23.48-2.79-.84-6.06-1.99-8.55-1.48-3.18-3.13-7.72-6.31-9.52-2.93-1.65-6.79-.73-9.4,1.4-4.5,3.67-6.68,9.42-6.61,15.11.02,1.62.22,3.23.6,4.8.91,3.76,2.65,7.27,4.6,10.6,1.47,2.52,3.08,4.96,4.8,7.3,5.65,7.68,12.69,14.35,20.83,19.34,4.07,2.49,8.45,4.68,12.99,6.18,5.09,1.68,9.62,3.43,15.12,2.39,5.76-1.09,11.43-4.65,13.71-10.2.68-1.64,1.01-3.47.64-5.2-.78-3.59-5.64-5.72-8.54-7.45Z"/>
</svg>