<?xml version="1.0" encoding="UTF-8"?>
<svg id="Capa_1" data-name="Capa 1" xmlns="http://www.w3.org/2000/svg" xmlns:xlink="http://www.w3.org/1999/xlink" viewBox="0 0 2037 1400">
  <defs>
    <style>
      .cls-1 {
        mask: url(#mask);
      }

      .cls-2 {
        filter: url(#luminosity-noclip);
      }

      .cls-3 {
        filter: url(#luminosity-noclip-21);
      }

      .cls-4 {
        filter: url(#luminosity-noclip-23);
      }

      .cls-5 {
        filter: url(#luminosity-noclip-17);
      }

      .cls-6 {
        filter: url(#luminosity-noclip-13);
      }

      .cls-7 {
        filter: url(#luminosity-noclip-11);
      }

      .cls-8 {
        filter: url(#luminosity-noclip-19);
      }

      .cls-9 {
        filter: url(#luminosity-noclip-15);
      }

      .cls-10 {
        filter: url(#luminosity-noclip-3);
      }

      .cls-11 {
        filter: url(#luminosity-noclip-9);
      }

      .cls-12 {
        filter: url(#luminosity-noclip-7);
      }

      .cls-13 {
        filter: url(#luminosity-noclip-5);
      }

      .cls-14 {
        fill: url(#linear-gradient-8);
      }

      .cls-15 {
        fill: url(#linear-gradient-6);
      }

      .cls-16 {
        fill: url(#linear-gradient-4);
      }

      .cls-17 {
        fill: url(#linear-gradient-2);
      }

      .cls-18 {
        fill: url(#linear-gradient-3);
      }

      .cls-18, .cls-19, .cls-20, .cls-21, .cls-22, .cls-23, .cls-24, .cls-25, .cls-26, .cls-27, .cls-28, .cls-29 {
        mix-blend-mode: multiply;
      }

      .cls-19 {
        fill: url(#linear-gradient-9);
      }

      .cls-20 {
        fill: url(#linear-gradient-5);
      }

      .cls-21 {
        fill: url(#linear-gradient-7);
      }

      .cls-30 {
        mask: url(#mask-2);
      }

      .cls-31 {
        mask: url(#mask-3);
      }

      .cls-32 {
        mask: url(#mask-4);
      }

      .cls-33 {
        mask: url(#mask-5);
      }

      .cls-34 {
        mask: url(#mask-7);
      }

      .cls-35 {
        mask: url(#mask-6);
      }

      .cls-36 {
        mask: url(#mask-1);
      }

      .cls-37 {
        mask: url(#mask-9);
      }

      .cls-38 {
        mask: url(#mask-8);
      }

      .cls-22 {
        fill: url(#linear-gradient-11);
      }

      .cls-23 {
        fill: url(#linear-gradient-13);
      }

      .cls-24 {
        fill: url(#linear-gradient-23);
      }

      .cls-25 {
        fill: url(#linear-gradient-19);
      }

      .cls-26 {
        fill: url(#linear-gradient-21);
      }

      .cls-27 {
        fill: url(#linear-gradient-17);
      }

      .cls-28 {
        fill: url(#linear-gradient-15);
      }

      .cls-39 {
        fill: url(#linear-gradient-10);
      }

      .cls-40 {
        fill: url(#linear-gradient-12);
      }

      .cls-41 {
        fill: url(#linear-gradient-14);
      }

      .cls-42 {
        fill: url(#linear-gradient-20);
      }

      .cls-43 {
        fill: url(#linear-gradient-22);
      }

      .cls-44 {
        fill: url(#linear-gradient-16);
      }

      .cls-45 {
        fill: url(#linear-gradient-18);
      }

      .cls-46 {
        fill: url(#linear-gradient-24);
      }

      .cls-29 {
        fill: url(#linear-gradient);
      }

      .cls-47 {
        mask: url(#mask-10);
      }

      .cls-48 {
        mask: url(#mask-14);
      }

      .cls-49 {
        mask: url(#mask-18);
      }

      .cls-50 {
        mask: url(#mask-11);
      }

      .cls-51 {
        mask: url(#mask-16);
      }

      .cls-52 {
        mask: url(#mask-13);
      }

      .cls-53 {
        mask: url(#mask-19);
      }

      .cls-54 {
        mask: url(#mask-12);
      }

      .cls-55 {
        mask: url(#mask-17);
      }

      .cls-56 {
        mask: url(#mask-15);
      }

      .cls-57 {
        mask: url(#mask-22);
      }

      .cls-58 {
        mask: url(#mask-21);
      }

      .cls-59 {
        mask: url(#mask-20);
      }

      .cls-60 {
        mask: url(#mask-23);
      }
    </style>
    <filter id="luminosity-noclip" x="180.94" y="57.2" width="1675.11" height="1285.6" color-interpolation-filters="sRGB" filterUnits="userSpaceOnUse">
      <feFlood flood-color="#fff" result="bg"/>
      <feBlend in="SourceGraphic" in2="bg"/>
    </filter>
    <filter id="luminosity-noclip-2" x="180.94" y="-9410" width="1675.11" height="32766" color-interpolation-filters="sRGB" filterUnits="userSpaceOnUse">
      <feFlood flood-color="#fff" result="bg"/>
      <feBlend in="SourceGraphic" in2="bg"/>
    </filter>
    <mask id="mask-1" x="180.94" y="-9410" width="1675.11" height="32766" maskUnits="userSpaceOnUse"/>
    <linearGradient id="linear-gradient" x1="180.94" y1="700" x2="1856.06" y2="700" gradientUnits="userSpaceOnUse">
      <stop offset="0" stop-color="#fff"/>
      <stop offset=".04" stop-color="#b4b4b4"/>
      <stop offset=".15" stop-color="#000"/>
      <stop offset=".17" stop-color="#161616"/>
      <stop offset=".39" stop-color="#fff"/>
      <stop offset=".63" stop-color="#e6e6e6"/>
      <stop offset=".86" stop-color="#1a1a1a"/>
      <stop offset="1" stop-color="#000"/>
    </linearGradient>
    <mask id="mask" x="180.94" y="57.2" width="1675.11" height="1285.6" maskUnits="userSpaceOnUse">
      <g class="cls-2">
        <g class="cls-36">
          <path class="cls-29" d="M622.54,1342.8c-26.94,0-52.94-.62-77.86-1.87-136.82-6.84-236.89-31.82-297.43-74.25-61.94-43.4-80.61-104.3-55.5-181.02,76.24-232.9,151.05-377.25,200.55-472.76,22.28-42.99,39.88-76.95,49.45-103.64l1.41.51-1.41-.51c15.92-44.42,84.37-103.39,178.63-153.91,101.44-54.36,210.06-87.28,298.02-90.31,121.31-4.18,253.11-39.11,342.31-67.68,103.91-33.28,211.59-77.91,288.04-119.39,49.35-26.78,99.89-27.69,146.14-2.64,80.08,43.38,136.99,158.82,148.52,301.26,5.46,67.51,11.11,137.33,12.38,204.7,1.41,74.49-2.87,137.89-13.07,193.82-12.19,66.78-32.91,124.96-63.34,177.85-33.98,59.05-79.23,110.27-138.34,156.59-100.95,79.11-379.73,164.16-677.93,206.83-121.99,17.45-238.1,26.41-340.57,26.41ZM1625.51,60.22c-24.91,0-50.27,6.8-75.33,20.4-76.61,41.57-184.48,86.28-288.55,119.61-89.38,28.62-221.47,63.63-343.13,67.82-87.51,3.02-195.66,35.8-296.71,89.96-93.63,50.18-161.54,108.53-177.22,152.28-9.64,26.89-27.28,60.92-49.61,104.01-49.46,95.43-124.19,239.64-200.36,472.31-24.65,75.31-6.36,135.07,54.37,177.63,60.07,42.09,159.61,66.89,295.86,73.71,119.49,5.98,263.98-2.5,417.85-24.52,297.74-42.6,575.93-127.4,676.51-206.22,58.8-46.08,103.8-97.01,137.59-155.73,30.26-52.59,50.87-110.45,62.99-176.89,22.75-124.65,11.51-263.48.65-397.74-11.44-141.44-67.75-255.96-146.96-298.86-21.87-11.85-44.72-17.76-67.95-17.76Z"/>
        </g>
      </g>
    </mask>
    <linearGradient id="linear-gradient-2" x1="180.94" y1="700" x2="1856.06" y2="700" gradientUnits="userSpaceOnUse">
      <stop offset="0" stop-color="#f3cba2"/>
      <stop offset=".15" stop-color="#f3debb"/>
      <stop offset=".39" stop-color="#d5a983"/>
      <stop offset=".63" stop-color="#a57b5d"/>
      <stop offset=".86" stop-color="#d5a983"/>
      <stop offset="1" stop-color="#d5a983"/>
    </linearGradient>
    <filter id="luminosity-noclip-3" x="243.8" y="101.42" width="1539.05" height="1190.87" color-interpolation-filters="sRGB" filterUnits="userSpaceOnUse">
      <feFlood flood-color="#fff" result="bg"/>
      <feBlend in="SourceGraphic" in2="bg"/>
    </filter>
    <filter id="luminosity-noclip-4" x="243.8" y="-9410" width="1539.05" height="32766" color-interpolation-filters="sRGB" filterUnits="userSpaceOnUse">
      <feFlood flood-color="#fff" result="bg"/>
      <feBlend in="SourceGraphic" in2="bg"/>
    </filter>
    <mask id="mask-3" x="243.8" y="-9410" width="1539.05" height="32766" maskUnits="userSpaceOnUse"/>
    <linearGradient id="linear-gradient-3" x1="243.8" y1="696.86" x2="1782.85" y2="696.86" xlink:href="#linear-gradient"/>
    <mask id="mask-2" x="243.8" y="101.42" width="1539.05" height="1190.87" maskUnits="userSpaceOnUse">
      <g class="cls-10">
        <g class="cls-31">
          <path class="cls-18" d="M639.23,1292.3c-21.31,0-41.95-.43-61.85-1.3-125.5-5.49-217.29-27.7-272.84-66.02-56.15-38.74-73.49-93.25-51.54-162.02,64.77-208.2,132.41-346.37,177.16-437.79,21.01-42.92,37.6-76.82,47.13-103.85,15.42-43.69,78.88-100.48,165.62-148.22,92.88-51.12,193.94-82.59,277.27-86.35,111.9-4.4,233.29-35.85,315.41-61.45,96.48-30.08,193.03-68.76,264.9-106.14,45.36-23.58,91.74-23.65,134.14-.2,73.6,40.7,125.92,146.91,136.53,277.2h0c10.13,122.91,20.61,250.01-.85,366.75-11.3,61.49-30.42,115.12-58.45,163.95-31.26,54.47-72.82,101.77-127.02,144.61-92.82,73.85-349.18,153.93-623.41,194.75-115.71,17.22-225.74,26.09-322.21,26.09ZM1568.86,104.26c-22.19,0-44.75,5.8-67.07,17.4-72.01,37.45-168.73,76.21-265.36,106.33-82.29,25.65-203.93,57.16-316.13,61.58-82.91,3.74-183.52,35.08-276.03,86-86.16,47.42-149.12,103.63-164.32,146.69-9.58,27.19-26.21,61.15-47.25,104.15-44.72,91.35-112.29,229.39-177,437.4-21.53,67.46-4.56,120.9,50.45,158.85,55.1,38.01,146.4,60.05,271.36,65.52,109.81,4.81,242.43-3.76,383.52-24.76,273.79-40.75,529.59-120.59,622.07-194.17,53.93-42.61,95.25-89.65,126.33-143.8,27.87-48.55,46.88-101.88,58.12-163.06,21.39-116.38,10.93-243.29.81-366.02h0c-10.54-129.36-62.3-234.71-135.09-274.96-20.69-11.44-42.37-17.16-64.41-17.16Z"/>
        </g>
      </g>
    </mask>
    <linearGradient id="linear-gradient-4" x1="243.8" y1="696.86" x2="1782.85" y2="696.86" xlink:href="#linear-gradient-2"/>
    <filter id="luminosity-noclip-5" x="306.62" y="145.6" width="1402.94" height="1096.3" color-interpolation-filters="sRGB" filterUnits="userSpaceOnUse">
      <feFlood flood-color="#fff" result="bg"/>
      <feBlend in="SourceGraphic" in2="bg"/>
    </filter>
    <filter id="luminosity-noclip-6" x="306.62" y="-9410" width="1402.94" height="32766" color-interpolation-filters="sRGB" filterUnits="userSpaceOnUse">
      <feFlood flood-color="#fff" result="bg"/>
      <feBlend in="SourceGraphic" in2="bg"/>
    </filter>
    <mask id="mask-5" x="306.62" y="-9410" width="1402.94" height="32766" maskUnits="userSpaceOnUse"/>
    <linearGradient id="linear-gradient-5" x1="306.62" y1="693.75" x2="1709.56" y2="693.75" xlink:href="#linear-gradient"/>
    <mask id="mask-4" x="306.62" y="145.6" width="1402.94" height="1096.3" maskUnits="userSpaceOnUse">
      <g class="cls-13">
        <g class="cls-33">
          <path class="cls-20" d="M656.09,1241.9c-15.78,0-31.13-.27-46.04-.81-114.18-4.13-197.7-23.58-248.24-57.79-50.36-34.08-66.36-82.21-47.55-143.05,53.73-184.84,112.06-311.84,154.65-404.56,19.33-42.08,34.59-75.32,43.94-102.33,15.15-43.62,72.2-96.9,152.61-142.53,84.35-47.87,177.85-77.89,256.52-82.38,185.76-8.38,418.88-93.17,530.26-148.11,41.37-20.38,83.61-19.61,122.17,2.24,67.11,38.02,114.82,135.01,124.52,253.12h0c8.95,106.2,19.08,226.57-1.01,334.99-10.42,56.2-27.93,105.28-53.55,150.05-28.55,49.89-66.4,93.27-115.71,132.63-42.5,34.41-120.81,70.34-226.45,103.89-101.47,32.23-223.1,60.21-342.46,78.8-109.37,17.03-213.29,25.84-303.65,25.84ZM1512.16,148.25c-19.45,0-39.2,4.81-58.76,14.45-111.57,55.04-345.14,139.98-531.29,148.38-78.27,4.47-171.35,34.37-255.36,82.04-79.86,45.32-136.47,98.07-151.42,141.1-9.39,27.13-24.68,60.42-44.04,102.57-42.55,92.65-100.83,219.55-154.52,404.22-18.43,59.62-2.78,106.75,46.51,140.11,50.13,33.93,133.18,53.22,246.86,57.33,100.13,3.62,220.89-5.02,349.19-25,119.24-18.57,240.72-46.52,342.07-78.71,105.32-33.45,183.33-69.21,225.59-103.43,49.06-39.15,86.7-82.29,115.07-131.88,25.47-44.51,42.89-93.32,53.25-149.22,20.03-108.07,9.91-228.26.97-334.29h0c-9.63-117.25-56.83-213.45-123.19-251.05-19.55-11.08-40.07-16.62-60.94-16.62Z"/>
        </g>
      </g>
    </mask>
    <linearGradient id="linear-gradient-6" x1="306.62" y1="693.75" x2="1709.56" y2="693.75" xlink:href="#linear-gradient-2"/>
    <filter id="luminosity-noclip-7" x="369.41" y="189.7" width="1266.87" height="1001.93" color-interpolation-filters="sRGB" filterUnits="userSpaceOnUse">
      <feFlood flood-color="#fff" result="bg"/>
      <feBlend in="SourceGraphic" in2="bg"/>
    </filter>
    <filter id="luminosity-noclip-8" x="369.41" y="-9410" width="1266.87" height="32766" color-interpolation-filters="sRGB" filterUnits="userSpaceOnUse">
      <feFlood flood-color="#fff" result="bg"/>
      <feBlend in="SourceGraphic" in2="bg"/>
    </filter>
    <mask id="mask-7" x="369.41" y="-9410" width="1266.87" height="32766" maskUnits="userSpaceOnUse"/>
    <linearGradient id="linear-gradient-7" x1="369.41" y1="690.67" x2="1636.28" y2="690.67" xlink:href="#linear-gradient"/>
    <mask id="mask-6" x="369.41" y="189.7" width="1266.87" height="1001.93" maskUnits="userSpaceOnUse">
      <g class="cls-12">
        <g class="cls-34">
          <path class="cls-21" d="M673.16,1191.63c-10.39,0-20.55-.13-30.51-.4-102.86-2.78-178.1-19.45-223.64-49.55-44.55-29.45-59.19-71.21-43.52-124.12,43.13-163.2,95.28-285.21,133.36-374.29,16.41-38.39,30.58-71.54,39.53-97.86,14.66-42.91,66.85-94.07,139.59-136.84,75.86-44.6,161.8-73.19,235.78-78.42,73.62-3.83,164.07-20.77,261.6-48.99,78.28-22.65,157.96-51.68,218.62-79.64,37.38-17.2,75.5-15.58,110.23,4.7,60.59,35.37,103.68,123.13,112.46,229.04,9.61,111.16,16.15,210.71-1.17,303.23-9.53,50.91-25.45,95.45-48.66,136.16-25.83,45.3-59.98,84.77-104.4,120.65-38.68,31.97-109.64,65.42-205.21,96.73-91.43,29.95-201.25,56.21-309.24,73.94-102.97,16.9-200.7,25.69-284.84,25.69ZM1455.38,192.17c-16.69,0-33.6,3.85-50.38,11.57-60.76,28.01-140.57,57.09-218.96,79.77-97.71,28.27-188.35,45.25-262.13,49.08-73.59,5.21-159.14,33.67-234.68,78.09-72.25,42.48-124.04,93.15-138.51,135.52-8.98,26.41-23.17,59.6-39.6,98.03-38.05,89.01-90.16,210.92-133.25,373.99-15.34,51.79-1.04,92.63,42.51,121.41,45.16,29.85,119.97,46.38,222.36,49.15,90.47,2.43,199.35-6.29,314.88-25.26,107.87-17.71,217.56-43.93,308.87-73.85,95.28-31.21,165.96-64.51,204.42-96.3,44.19-35.69,78.14-74.93,103.82-119.96,23.07-40.47,38.9-84.76,48.38-135.39,17.26-92.21,10.73-191.58,1.14-302.57h0c-8.72-105.13-51.35-192.16-111.26-227.13-18.43-10.76-37.85-16.16-57.59-16.16Z"/>
        </g>
      </g>
    </mask>
    <linearGradient id="linear-gradient-8" x1="369.41" y1="690.67" x2="1636.28" y2="690.67" xlink:href="#linear-gradient-2"/>
    <filter id="luminosity-noclip-9" x="432.14" y="233.72" width="1130.88" height="907.84" color-interpolation-filters="sRGB" filterUnits="userSpaceOnUse">
      <feFlood flood-color="#fff" result="bg"/>
      <feBlend in="SourceGraphic" in2="bg"/>
    </filter>
    <filter id="luminosity-noclip-10" x="432.14" y="-9410" width="1130.88" height="32766" color-interpolation-filters="sRGB" filterUnits="userSpaceOnUse">
      <feFlood flood-color="#fff" result="bg"/>
      <feBlend in="SourceGraphic" in2="bg"/>
    </filter>
    <mask id="mask-9" x="432.14" y="-9410" width="1130.88" height="32766" maskUnits="userSpaceOnUse"/>
    <linearGradient id="linear-gradient-9" x1="432.14" y1="687.64" x2="1563.03" y2="687.64" xlink:href="#linear-gradient"/>
    <mask id="mask-8" x="432.14" y="233.72" width="1130.88" height="907.84" maskUnits="userSpaceOnUse">
      <g class="cls-11">
        <g class="cls-37">
          <path class="cls-19" d="M690.53,1141.56c-5.17,0-10.27-.04-15.32-.12-91.54-1.42-158.51-15.32-199.05-41.32-38.73-24.84-52-60.25-39.42-105.26,32.87-143.76,79.64-262.38,113.79-348.99,13.54-34.34,25.24-64,33.39-88.41,14.4-42.87,60.54-90.67,126.58-131.15,67.43-41.33,145.8-68.47,215.03-74.45,137.21-8.29,319.17-62.4,430.18-109.16,33.43-14.04,67.44-11.56,98.35,7.17,54.03,32.74,92.49,111.26,100.36,204.93h0c8.45,94.78,14.7,186.86-1.33,271.46-8.64,45.61-22.96,85.61-43.76,122.26-23.11,40.72-53.56,76.26-93.08,108.67-34.86,29.53-98.49,60.52-183.99,89.6-81.39,27.68-179.42,52.22-276.03,69.1-96.49,16.85-187.94,25.67-265.7,25.68ZM1398.49,236c-13.88,0-27.94,2.92-41.9,8.78-111.18,46.83-293.45,101.03-430.89,109.33-68.86,5.95-146.87,32.97-214.01,74.13-65.6,40.21-111.38,87.57-125.61,129.94-8.17,24.46-19.88,54.15-33.43,88.52-34.13,86.54-80.86,205.07-113.71,348.72-12.29,43.99.65,78.55,38.45,102.79,40.18,25.77,106.75,39.55,197.86,40.96,80.8,1.23,177.83-7.57,280.59-25.53,96.49-16.86,194.4-41.36,275.69-69.01,85.24-28.99,148.61-59.83,183.27-89.19,39.32-32.23,69.59-67.57,92.56-108.04,20.68-36.43,34.91-76.2,43.51-121.56,15.98-84.32,9.73-176.23,1.3-270.84h0c-7.81-92.96-45.84-170.81-99.27-203.18-17.36-10.52-35.72-15.8-54.4-15.8Z"/>
        </g>
      </g>
    </mask>
    <linearGradient id="linear-gradient-10" x1="432.14" y1="687.64" x2="1563.03" y2="687.64" xlink:href="#linear-gradient-2"/>
    <filter id="luminosity-noclip-11" x="494.8" y="277.6" width="994.99" height="814.15" color-interpolation-filters="sRGB" filterUnits="userSpaceOnUse">
      <feFlood flood-color="#fff" result="bg"/>
      <feBlend in="SourceGraphic" in2="bg"/>
    </filter>
    <filter id="luminosity-noclip-12" x="494.8" y="-9410" width="994.99" height="32766" color-interpolation-filters="sRGB" filterUnits="userSpaceOnUse">
      <feFlood flood-color="#fff" result="bg"/>
      <feBlend in="SourceGraphic" in2="bg"/>
    </filter>
    <mask id="mask-11" x="494.8" y="-9410" width="994.99" height="32766" maskUnits="userSpaceOnUse"/>
    <linearGradient id="linear-gradient-11" x1="494.8" y1="684.67" x2="1489.79" y2="684.67" xlink:href="#linear-gradient"/>
    <mask id="mask-10" x="494.8" y="277.6" width="994.99" height="814.15" maskUnits="userSpaceOnUse">
      <g class="cls-7">
        <g class="cls-50">
          <path class="cls-22" d="M708.27,1091.74h-.57c-80.22-.05-138.92-11.18-174.46-33.07-32.91-20.26-44.77-49.37-35.25-86.51,22.61-126.93,65.38-245.4,96.61-331.9,9.78-27.09,18.23-50.48,24.88-70.76,13.93-42.22,55.33-87.95,113.56-125.46,59.07-38.05,129.89-63.75,194.29-70.49,59.29-4.2,129.19-16.5,207.8-36.54,59.13-15.08,121.94-34.45,172.34-53.15,29.5-10.89,59.42-7.54,86.55,9.7,47.44,30.14,81.22,99.41,88.16,180.78,7.34,79.24,13.26,163.02-1.49,239.7-7.76,40.32-20.47,75.76-38.87,108.37-20.39,36.13-47.14,67.76-81.77,96.68-61.54,53.72-224.57,112.72-405.65,146.8-89.88,16.92-174.97,25.85-246.13,25.85ZM1341.45,279.7c-11.03,0-22.18,2.04-33.26,6.13-50.46,18.72-113.36,38.12-172.55,53.21-78.72,20.07-148.75,32.38-208.13,36.59-64.05,6.71-134.53,32.28-193.34,70.17-57.84,37.26-98.92,82.59-112.71,124.36-6.66,20.3-15.11,43.71-24.9,70.81-31.21,86.43-73.94,204.8-96.53,331.63-9.28,36.23,2.27,64.56,34.31,84.29,35.21,21.68,93.54,32.71,173.37,32.76h.57c71.03,0,155.98-8.92,245.74-25.82,180.75-34.02,343.37-92.83,404.68-146.34,34.45-28.77,61.04-60.21,81.31-96.12,18.28-32.4,30.92-67.64,38.64-107.73,14.7-76.41,8.78-160.02,1.46-239.12h0c-6.89-80.74-40.3-149.41-87.2-179.2-16.35-10.39-33.75-15.63-51.44-15.63Z"/>
        </g>
      </g>
    </mask>
    <linearGradient id="linear-gradient-12" x1="494.8" y1="684.67" x2="1489.79" y2="684.67" xlink:href="#linear-gradient-2"/>
    <filter id="luminosity-noclip-13" x="557.34" y="321.26" width="859.23" height="721.07" color-interpolation-filters="sRGB" filterUnits="userSpaceOnUse">
      <feFlood flood-color="#fff" result="bg"/>
      <feBlend in="SourceGraphic" in2="bg"/>
    </filter>
    <filter id="luminosity-noclip-14" x="557.34" y="-9410" width="859.23" height="32766" color-interpolation-filters="sRGB" filterUnits="userSpaceOnUse">
      <feFlood flood-color="#fff" result="bg"/>
      <feBlend in="SourceGraphic" in2="bg"/>
    </filter>
    <mask id="mask-13" x="557.34" y="-9410" width="859.23" height="32766" maskUnits="userSpaceOnUse"/>
    <linearGradient id="linear-gradient-13" x1="557.34" y1="681.8" x2="1416.57" y2="681.8" xlink:href="#linear-gradient"/>
    <mask id="mask-12" x="557.34" y="321.26" width="859.23" height="721.07" maskUnits="userSpaceOnUse">
      <g class="cls-6">
        <g class="cls-52">
          <path class="cls-23" d="M726.23,1042.33c-61.84,0-107.56-8.37-136.02-24.92-27.06-15.74-37.49-38.57-31-67.88,11.39-112.86,52.61-237.28,82.71-328.14,4.72-14.26,9.18-27.72,13.09-39.84,13.69-42.24,49.4-84.77,100.55-119.77,51.58-35.28,113.21-58.91,173.54-66.53,41.71-3.52,157.29-17.39,330.11-70.21,25.61-7.76,51.5-3.52,74.87,12.29,40.76,27.57,69.82,87.56,75.84,156.55,6.27,64.58,11.83,139.23-1.65,207.94-14.24,72.62-48.4,131.22-104.43,179.17-27.26,24.7-76.25,50.8-141.64,75.48-62.28,23.5-134.79,44.09-209.69,59.54-77.35,15.95-150.8,25.01-212.41,26.19-4.71.09-9.34.13-13.88.13ZM1284.17,323.17c-8.1,0-16.27,1.23-24.4,3.69-27.65,8.45-83.82,24.88-149.34,39.93-68.79,15.81-129.72,26.02-181.12,30.35-60,7.58-121.33,31.09-172.66,66.21-50.8,34.76-86.25,76.94-99.81,118.78-3.91,12.12-8.37,25.59-13.09,39.86-30.08,90.79-71.27,215.12-82.63,327.79l-.02.11c-6.32,28.43,3.8,50.59,30.08,65.87,29.82,17.34,81.31,25.83,148.9,24.53,61.5-1.18,134.82-10.22,212.06-26.15,74.8-15.43,147.22-35.99,209.41-59.45,65.17-24.59,113.94-50.57,141.05-75.12,55.71-47.67,89.66-105.93,103.82-178.1,13.43-68.46,7.88-142.95,1.62-207.39h0c-5.97-68.45-34.71-127.89-75.01-155.15-15.44-10.45-32.01-15.74-48.84-15.74Z"/>
        </g>
      </g>
    </mask>
    <linearGradient id="linear-gradient-14" x1="557.34" y1="681.8" x2="1416.57" y2="681.8" xlink:href="#linear-gradient-2"/>
    <filter id="luminosity-noclip-15" x="619.68" y="364.56" width="723.69" height="628.98" color-interpolation-filters="sRGB" filterUnits="userSpaceOnUse">
      <feFlood flood-color="#fff" result="bg"/>
      <feBlend in="SourceGraphic" in2="bg"/>
    </filter>
    <filter id="luminosity-noclip-16" x="619.68" y="-9410" width="723.69" height="32766" color-interpolation-filters="sRGB" filterUnits="userSpaceOnUse">
      <feFlood flood-color="#fff" result="bg"/>
      <feBlend in="SourceGraphic" in2="bg"/>
    </filter>
    <mask id="mask-15" x="619.68" y="-9410" width="723.69" height="32766" maskUnits="userSpaceOnUse"/>
    <linearGradient id="linear-gradient-15" x1="619.68" y1="679.05" x2="1343.37" y2="679.05" xlink:href="#linear-gradient"/>
    <mask id="mask-14" x="619.68" y="364.56" width="723.69" height="628.98" maskUnits="userSpaceOnUse">
      <g class="cls-9">
        <g class="cls-56">
          <path class="cls-28" d="M746.07,993.54c-43.91,0-77.83-5.81-99-17.07-21.26-11.31-30.21-27.99-26.61-49.59-3.23-101.34,48.16-263.87,70.1-333.29,27.57-86.69,126.4-159.33,240.33-176.64,90.57-9.24,197.32-32.62,261.1-46.58,6.77-1.48,13.13-2.87,19-4.15,21.79-4.67,43.72.54,63.39,15.04,33.97,25.04,58.22,75.68,63.3,132.17,5.93,57.39,9.81,118.45-1.81,176.18-12.4,61.6-41.25,111.74-88.22,153.29-46.16,43.85-162.76,92.29-297.05,123.39-64.57,14.95-126.17,24.15-178.14,26.61-9.15.43-17.96.65-26.4.65ZM1226.52,366.29c-5.05,0-10.11.54-15.17,1.62-5.87,1.27-12.22,2.66-18.99,4.15-63.81,13.97-170.62,37.37-261.25,46.61-113.27,17.21-211.52,89.36-238.9,175.45-21.93,69.35-73.28,231.76-70.02,332.8v.09s-.01.08-.01.08c-3.5,20.83,5.15,36.93,25.7,47.86,24.97,13.28,68.03,18.89,124.51,16.23,51.87-2.45,113.37-11.63,177.83-26.56,134-31.04,250.29-79.31,296.27-122.98,104.3-92.26,101.39-212.63,89.48-328.02h0c-5.04-56.03-29.03-106.2-62.61-130.95-14.69-10.83-30.64-16.36-46.83-16.36Z"/>
        </g>
      </g>
    </mask>
    <linearGradient id="linear-gradient-16" x1="619.68" y1="679.05" x2="1343.37" y2="679.05" xlink:href="#linear-gradient-2"/>
    <filter id="luminosity-noclip-17" x="676.23" y="407.16" width="593.86" height="538.74" color-interpolation-filters="sRGB" filterUnits="userSpaceOnUse">
      <feFlood flood-color="#fff" result="bg"/>
      <feBlend in="SourceGraphic" in2="bg"/>
    </filter>
    <filter id="luminosity-noclip-18" x="676.23" y="-9410" width="593.86" height="32766" color-interpolation-filters="sRGB" filterUnits="userSpaceOnUse">
      <feFlood flood-color="#fff" result="bg"/>
      <feBlend in="SourceGraphic" in2="bg"/>
    </filter>
    <mask id="mask-17" x="676.23" y="-9410" width="593.86" height="32766" maskUnits="userSpaceOnUse"/>
    <linearGradient id="linear-gradient-17" x1="676.23" y1="676.53" x2="1270.09" y2="676.53" xlink:href="#linear-gradient"/>
    <mask id="mask-16" x="676.23" y="407.16" width="593.86" height="538.74" maskUnits="userSpaceOnUse">
      <g class="cls-5">
        <g class="cls-55">
          <path class="cls-27" d="M766.68,945.91c-26.84,0-48.36-3.2-62.84-9.72-15.59-7.03-23.04-17.76-22.14-31.89-8.64-27.58-7.03-74.61,4.77-139.79,8.6-47.49,23.04-105.39,39.63-158.86,26.75-85.77,103.97-148.19,206.57-166.98,35.96-4.55,73.39-10.02,109.59-15.31,46.82-6.84,91.04-13.29,120.5-15.95,24.8-2.14,49.17,10.34,68.62,35.13,18.44,23.5,30.84,56.46,34.05,90.44,8.73,77.77,3.53,118.03-1.97,144.42-10.54,50.56-34.1,92.24-72.01,127.41-38.69,39.13-131.67,82.07-242.65,112.03-70.89,19.14-134.78,29.08-182.12,29.08ZM1168.22,408.71c-1.77,0-3.54.08-5.32.23-29.42,2.65-73.61,9.1-120.41,15.94-36.21,5.29-73.65,10.75-109.58,15.3-101.98,18.68-178.76,80.7-205.33,165.91-16.57,53.41-31,111.25-39.59,158.68-11.78,65.04-13.38,111.88-4.77,139.19l.04.14v.14c-.92,13.49,6.21,23.76,21.21,30.53,39.7,17.91,133.17,10.46,243.92-19.44,110.73-29.89,203.45-72.67,241.98-111.64,37.69-34.96,61.09-76.37,71.57-126.61,10.43-50.02,6.52-103.2,1.94-143.94h0c-3.17-33.71-15.46-66.38-33.72-89.65-17.72-22.58-39.54-34.77-61.94-34.77Z"/>
        </g>
      </g>
    </mask>
    <linearGradient id="linear-gradient-18" x1="676.23" y1="676.53" x2="1270.09" y2="676.53" xlink:href="#linear-gradient-2"/>
    <filter id="luminosity-noclip-19" x="726.01" y="447.05" width="470.98" height="453.45" color-interpolation-filters="sRGB" filterUnits="userSpaceOnUse">
      <feFlood flood-color="#fff" result="bg"/>
      <feBlend in="SourceGraphic" in2="bg"/>
    </filter>
    <filter id="luminosity-noclip-20" x="726.01" y="-9410" width="470.98" height="32766" color-interpolation-filters="sRGB" filterUnits="userSpaceOnUse">
      <feFlood flood-color="#fff" result="bg"/>
      <feBlend in="SourceGraphic" in2="bg"/>
    </filter>
    <mask id="mask-19" x="726.01" y="-9410" width="470.98" height="32766" maskUnits="userSpaceOnUse"/>
    <linearGradient id="linear-gradient-19" x1="726.01" y1="673.78" x2="1197" y2="673.78" xlink:href="#linear-gradient"/>
    <mask id="mask-18" x="726.01" y="447.05" width="470.98" height="453.45" maskUnits="userSpaceOnUse">
      <g class="cls-8">
        <g class="cls-53">
          <path class="cls-25" d="M788.97,900.5c-11.1,0-20.47-1.01-27.74-3.08-10.63-3.04-16.76-8.28-18.21-15.59-20.1-15.49-18.78-68.07-14.12-109.52,5.26-46.75,17.5-104.55,32.74-154.64,13.17-43.09,33.28-76.67,61.49-102.67,28.81-26.55,65.22-44.42,111.32-54.65,69.81-11.38,140.5-15.99,180.12-11.75,19.29,2.15,38.07,14.65,52.88,35.18,13.85,19.21,23.23,44.26,25.72,68.73,8.17,64.62,8.97,147.35-57.92,214.18-30.96,34.16-100.92,71.87-187.11,100.83-62.99,21.17-121.18,32.98-159.18,32.98ZM1080.08,448.41c-39.84,0-92.85,4.72-145.36,13.28-45.82,10.16-82.02,27.93-110.65,54.31-28.03,25.83-48.02,59.21-61.11,102.06-28.5,93.61-53.2,237.04-18.9,262.83l.21.16.05.26c1.25,6.89,7.07,11.86,17.29,14.78,31.92,9.12,104.97-2.61,186.11-29.88,85.98-28.89,155.73-66.45,186.56-100.48,66.49-66.43,65.68-148.77,57.55-213.08v-.02c-2.47-24.24-11.76-49.06-25.48-68.08-14.58-20.22-33.02-32.51-51.92-34.62-9.73-1.04-21.33-1.54-34.35-1.54Z"/>
        </g>
      </g>
    </mask>
    <linearGradient id="linear-gradient-20" x1="726.01" y1="673.78" x2="1197" y2="673.78" xlink:href="#linear-gradient-2"/>
    <filter id="luminosity-noclip-21" x="771.18" y="476.06" width="352.56" height="385.13" color-interpolation-filters="sRGB" filterUnits="userSpaceOnUse">
      <feFlood flood-color="#fff" result="bg"/>
      <feBlend in="SourceGraphic" in2="bg"/>
    </filter>
    <filter id="luminosity-noclip-22" x="771.18" y="-9410" width="352.56" height="32766" color-interpolation-filters="sRGB" filterUnits="userSpaceOnUse">
      <feFlood flood-color="#fff" result="bg"/>
      <feBlend in="SourceGraphic" in2="bg"/>
    </filter>
    <mask id="mask-21" x="771.18" y="-9410" width="352.56" height="32766" maskUnits="userSpaceOnUse"/>
    <linearGradient id="linear-gradient-21" x1="771.18" y1="668.63" x2="1123.74" y2="668.63" xlink:href="#linear-gradient"/>
    <mask id="mask-20" x="771.18" y="476.06" width="352.56" height="385.13" maskUnits="userSpaceOnUse">
      <g class="cls-3">
        <g class="cls-58">
          <path class="cls-26" d="M815.72,861.2c-4.79,0-8.52-.61-11.01-1.88-7.99,1.16-14.68-1.31-19.89-7.31-15.25-17.56-14.98-61.34-12.07-94.99,3.46-40.03,12.61-87.62,24.46-127.31,13.43-44.89,28.38-74.79,48.48-96.96,21.43-23.64,50.22-39.75,90.58-50.7,46.09-10.24,97.18-7.18,130.17,7.79,29.57,13.57,50.94,52.45,54.51,82.2,9.37,61.48-4.72,114.15-41.86,156.53-13.8,17.34-35.3,35.42-63.87,53.73-24.74,15.85-54.13,31.37-85.02,44.87-48.35,21.14-92.5,34.01-114.47,34.01ZM804.91,858.09l.17.09c2.38,1.27,6,1.87,10.67,1.87,48.36,0,208.97-65.1,262.41-132.23,36.92-42.13,50.91-94.47,41.59-155.6v-.02c-3.53-29.43-24.63-67.88-53.83-81.28-32.77-14.87-83.57-17.9-129.4-7.72-40.11,10.88-68.71,26.87-89.99,50.34-19.97,22.03-34.84,51.79-48.22,96.5-11.83,39.62-20.95,87.12-24.41,127.08-2.89,33.42-3.19,76.87,11.78,94.11,4.97,5.72,11.37,8.04,19.02,6.88l.19-.03Z"/>
        </g>
      </g>
    </mask>
    <linearGradient id="linear-gradient-22" x1="771.18" y1="668.63" x2="1123.74" y2="668.63" xlink:href="#linear-gradient-2"/>
    <filter id="luminosity-noclip-23" x="813.25" y="499.85" width="237.39" height="344.11" color-interpolation-filters="sRGB" filterUnits="userSpaceOnUse">
      <feFlood flood-color="#fff" result="bg"/>
      <feBlend in="SourceGraphic" in2="bg"/>
    </filter>
    <filter id="luminosity-noclip-24" x="813.25" y="-9410" width="237.39" height="32766" color-interpolation-filters="sRGB" filterUnits="userSpaceOnUse">
      <feFlood flood-color="#fff" result="bg"/>
      <feBlend in="SourceGraphic" in2="bg"/>
    </filter>
    <mask id="mask-23" x="813.25" y="-9410" width="237.39" height="32766" maskUnits="userSpaceOnUse"/>
    <linearGradient id="linear-gradient-23" x1="813.25" y1="671.91" x2="1050.64" y2="671.91" xlink:href="#linear-gradient"/>
    <mask id="mask-22" x="813.25" y="499.85" width="237.39" height="344.11" maskUnits="userSpaceOnUse">
      <g class="cls-4">
        <g class="cls-60">
          <path class="cls-24" d="M844.47,843.97c-4.79,0-9.08-1.42-12.84-4.28-9.43-7.15-20.22-27.12-18.12-81.61,1.41-36.53,8.6-80.01,19.23-116.32,12.56-42.91,21.22-70.47,35.46-91.23,14.73-21.48,34.96-35.03,69.84-46.75,19.22-6.46,37.45-4.91,54.17,4.6,36.15,20.58,53.99,71.66,56.47,83.2,4.63,21.56,1.07,45.53-10.59,71.25-10.04,22.14-26.07,45.63-47.66,69.84-39.02,43.75-89.74,82.27-124.19,103.73-8.11,5.05-15.39,7.58-21.77,7.58ZM960.8,500.86c-7.3,0-14.78,1.28-22.44,3.86-34.65,11.65-54.74,25.08-69.34,46.37-14.15,20.65-22.79,48.13-35.32,90.95-19.38,66.2-31.06,174.4-1.47,196.86,8.4,6.38,19.66,5.25,33.47-3.35,34.39-21.42,85.02-59.87,123.97-103.55,21.52-24.13,37.5-47.54,47.49-69.59,11.57-25.52,15.11-49.28,10.53-70.62-2.46-11.46-20.16-62.15-55.99-82.54-9.81-5.58-20.15-8.38-30.92-8.38Z"/>
        </g>
      </g>
    </mask>
    <linearGradient id="linear-gradient-24" x1="813.25" y1="671.91" x2="1050.64" y2="671.91" xlink:href="#linear-gradient-2"/>
  </defs>
  <g class="cls-1">
    <path class="cls-17" d="M622.54,1342.8c-26.94,0-52.94-.62-77.86-1.87-136.82-6.84-236.89-31.82-297.43-74.25-61.94-43.4-80.61-104.3-55.5-181.02,76.24-232.9,151.05-377.25,200.55-472.76,22.28-42.99,39.88-76.95,49.45-103.64l1.41.51-1.41-.51c15.92-44.42,84.37-103.39,178.63-153.91,101.44-54.36,210.06-87.28,298.02-90.31,121.31-4.18,253.11-39.11,342.31-67.68,103.91-33.28,211.59-77.91,288.04-119.39,49.35-26.78,99.89-27.69,146.14-2.64,80.08,43.38,136.99,158.82,148.52,301.26,5.46,67.51,11.11,137.33,12.38,204.7,1.41,74.49-2.87,137.89-13.07,193.82-12.19,66.78-32.91,124.96-63.34,177.85-33.98,59.05-79.23,110.27-138.34,156.59-100.95,79.11-379.73,164.16-677.93,206.83-121.99,17.45-238.1,26.41-340.57,26.41ZM1625.51,60.22c-24.91,0-50.27,6.8-75.33,20.4-76.61,41.57-184.48,86.28-288.55,119.61-89.38,28.62-221.47,63.63-343.13,67.82-87.51,3.02-195.66,35.8-296.71,89.96-93.63,50.18-161.54,108.53-177.22,152.28-9.64,26.89-27.28,60.92-49.61,104.01-49.46,95.43-124.19,239.64-200.36,472.31-24.65,75.31-6.36,135.07,54.37,177.63,60.07,42.09,159.61,66.89,295.86,73.71,119.49,5.98,263.98-2.5,417.85-24.52,297.74-42.6,575.93-127.4,676.51-206.22,58.8-46.08,103.8-97.01,137.59-155.73,30.26-52.59,50.87-110.45,62.99-176.89,22.75-124.65,11.51-263.48.65-397.74-11.44-141.44-67.75-255.96-146.96-298.86-21.87-11.85-44.72-17.76-67.95-17.76Z"/>
  </g>
  <g class="cls-30">
    <path class="cls-16" d="M639.23,1292.3c-21.31,0-41.95-.43-61.85-1.3-125.5-5.49-217.29-27.7-272.84-66.02-56.15-38.74-73.49-93.25-51.54-162.02,64.77-208.2,132.41-346.37,177.16-437.79,21.01-42.92,37.6-76.82,47.13-103.85,15.42-43.69,78.88-100.48,165.62-148.22,92.88-51.12,193.94-82.59,277.27-86.35,111.9-4.4,233.29-35.85,315.41-61.45,96.48-30.08,193.03-68.76,264.9-106.14,45.36-23.58,91.74-23.65,134.14-.2,73.6,40.7,125.92,146.91,136.53,277.2h0c10.13,122.91,20.61,250.01-.85,366.75-11.3,61.49-30.42,115.12-58.45,163.95-31.26,54.47-72.82,101.77-127.02,144.61-92.82,73.85-349.18,153.93-623.41,194.75-115.71,17.22-225.74,26.09-322.21,26.09ZM1568.86,104.26c-22.19,0-44.75,5.8-67.07,17.4-72.01,37.45-168.73,76.21-265.36,106.33-82.29,25.65-203.93,57.16-316.13,61.58-82.91,3.74-183.52,35.08-276.03,86-86.16,47.42-149.12,103.63-164.32,146.69-9.58,27.19-26.21,61.15-47.25,104.15-44.72,91.35-112.29,229.39-177,437.4-21.53,67.46-4.56,120.9,50.45,158.85,55.1,38.01,146.4,60.05,271.36,65.52,109.81,4.81,242.43-3.76,383.52-24.76,273.79-40.75,529.59-120.59,622.07-194.17,53.93-42.61,95.25-89.65,126.33-143.8,27.87-48.55,46.88-101.88,58.12-163.06,21.39-116.38,10.93-243.29.81-366.02h0c-10.54-129.36-62.3-234.71-135.09-274.96-20.69-11.44-42.37-17.16-64.41-17.16Z"/>
  </g>
  <g class="cls-32">
    <path class="cls-15" d="M656.09,1241.9c-15.78,0-31.13-.27-46.04-.81-114.18-4.13-197.7-23.58-248.24-57.79-50.36-34.08-66.36-82.21-47.55-143.05,53.73-184.84,112.06-311.84,154.65-404.56,19.33-42.08,34.59-75.32,43.94-102.33,15.15-43.62,72.2-96.9,152.61-142.53,84.35-47.87,177.85-77.89,256.52-82.38,185.76-8.38,418.88-93.17,530.26-148.11,41.37-20.38,83.61-19.61,122.17,2.24,67.11,38.02,114.82,135.01,124.52,253.12h0c8.95,106.2,19.08,226.57-1.01,334.99-10.42,56.2-27.93,105.28-53.55,150.05-28.55,49.89-66.4,93.27-115.71,132.63-42.5,34.41-120.81,70.34-226.45,103.89-101.47,32.23-223.1,60.21-342.46,78.8-109.37,17.03-213.29,25.84-303.65,25.84ZM1512.16,148.25c-19.45,0-39.2,4.81-58.76,14.45-111.57,55.04-345.14,139.98-531.29,148.38-78.27,4.47-171.35,34.37-255.36,82.04-79.86,45.32-136.47,98.07-151.42,141.1-9.39,27.13-24.68,60.42-44.04,102.57-42.55,92.65-100.83,219.55-154.52,404.22-18.43,59.62-2.78,106.75,46.51,140.11,50.13,33.93,133.18,53.22,246.86,57.33,100.13,3.62,220.89-5.02,349.19-25,119.24-18.57,240.72-46.52,342.07-78.71,105.32-33.45,183.33-69.21,225.59-103.43,49.06-39.15,86.7-82.29,115.07-131.88,25.47-44.51,42.89-93.32,53.25-149.22,20.03-108.07,9.91-228.26.97-334.29h0c-9.63-117.25-56.83-213.45-123.19-251.05-19.55-11.08-40.07-16.62-60.94-16.62Z"/>
  </g>
  <g class="cls-35">
    <path class="cls-14" d="M673.16,1191.63c-10.39,0-20.55-.13-30.51-.4-102.86-2.78-178.1-19.45-223.64-49.55-44.55-29.45-59.19-71.21-43.52-124.12,43.13-163.2,95.28-285.21,133.36-374.29,16.41-38.39,30.58-71.54,39.53-97.86,14.66-42.91,66.85-94.07,139.59-136.84,75.86-44.6,161.8-73.19,235.78-78.42,73.62-3.83,164.07-20.77,261.6-48.99,78.28-22.65,157.96-51.68,218.62-79.64,37.38-17.2,75.5-15.58,110.23,4.7,60.59,35.37,103.68,123.13,112.46,229.04,9.61,111.16,16.15,210.71-1.17,303.23-9.53,50.91-25.45,95.45-48.66,136.16-25.83,45.3-59.98,84.77-104.4,120.65-38.68,31.97-109.64,65.42-205.21,96.73-91.43,29.95-201.25,56.21-309.24,73.94-102.97,16.9-200.7,25.69-284.84,25.69ZM1455.38,192.17c-16.69,0-33.6,3.85-50.38,11.57-60.76,28.01-140.57,57.09-218.96,79.77-97.71,28.27-188.35,45.25-262.13,49.08-73.59,5.21-159.14,33.67-234.68,78.09-72.25,42.48-124.04,93.15-138.51,135.52-8.98,26.41-23.17,59.6-39.6,98.03-38.05,89.01-90.16,210.92-133.25,373.99-15.34,51.79-1.04,92.63,42.51,121.41,45.16,29.85,119.97,46.38,222.36,49.15,90.47,2.43,199.35-6.29,314.88-25.26,107.87-17.71,217.56-43.93,308.87-73.85,95.28-31.21,165.96-64.51,204.42-96.3,44.19-35.69,78.14-74.93,103.82-119.96,23.07-40.47,38.9-84.76,48.38-135.39,17.26-92.21,10.73-191.58,1.14-302.57h0c-8.72-105.13-51.35-192.16-111.26-227.13-18.43-10.76-37.85-16.16-57.59-16.16Z"/>
  </g>
  <g class="cls-38">
    <path class="cls-39" d="M690.53,1141.56c-5.17,0-10.27-.04-15.32-.12-91.54-1.42-158.51-15.32-199.05-41.32-38.73-24.84-52-60.25-39.42-105.26,32.87-143.76,79.64-262.38,113.79-348.99,13.54-34.34,25.24-64,33.39-88.41,14.4-42.87,60.54-90.67,126.58-131.15,67.43-41.33,145.8-68.47,215.03-74.45,137.21-8.29,319.17-62.4,430.18-109.16,33.43-14.04,67.44-11.56,98.35,7.17,54.03,32.74,92.49,111.26,100.36,204.93h0c8.45,94.78,14.7,186.86-1.33,271.46-8.64,45.61-22.96,85.61-43.76,122.26-23.11,40.72-53.56,76.26-93.08,108.67-34.86,29.53-98.49,60.52-183.99,89.6-81.39,27.68-179.42,52.22-276.03,69.1-96.49,16.85-187.94,25.67-265.7,25.68ZM1398.49,236c-13.88,0-27.94,2.92-41.9,8.78-111.18,46.83-293.45,101.03-430.89,109.33-68.86,5.95-146.87,32.97-214.01,74.13-65.6,40.21-111.38,87.57-125.61,129.94-8.17,24.46-19.88,54.15-33.43,88.52-34.13,86.54-80.86,205.07-113.71,348.72-12.29,43.99.65,78.55,38.45,102.79,40.18,25.77,106.75,39.55,197.86,40.96,80.8,1.23,177.83-7.57,280.59-25.53,96.49-16.86,194.4-41.36,275.69-69.01,85.24-28.99,148.61-59.83,183.27-89.19,39.32-32.23,69.59-67.57,92.56-108.04,20.68-36.43,34.91-76.2,43.51-121.56,15.98-84.32,9.73-176.23,1.3-270.84h0c-7.81-92.96-45.84-170.81-99.27-203.18-17.36-10.52-35.72-15.8-54.4-15.8Z"/>
  </g>
  <g class="cls-47">
    <path class="cls-40" d="M708.27,1091.74h-.57c-80.22-.05-138.92-11.18-174.46-33.07-32.91-20.26-44.77-49.37-35.25-86.51,22.61-126.93,65.38-245.4,96.61-331.9,9.78-27.09,18.23-50.48,24.88-70.76,13.93-42.22,55.33-87.95,113.56-125.46,59.07-38.05,129.89-63.75,194.29-70.49,59.29-4.2,129.19-16.5,207.8-36.54,59.13-15.08,121.94-34.45,172.34-53.15,29.5-10.89,59.42-7.54,86.55,9.7,47.44,30.14,81.22,99.41,88.16,180.78,7.34,79.24,13.26,163.02-1.49,239.7-7.76,40.32-20.47,75.76-38.87,108.37-20.39,36.13-47.14,67.76-81.77,96.68-61.54,53.72-224.57,112.72-405.65,146.8-89.88,16.92-174.97,25.85-246.13,25.85ZM1341.45,279.7c-11.03,0-22.18,2.04-33.26,6.13-50.46,18.72-113.36,38.12-172.55,53.21-78.72,20.07-148.75,32.38-208.13,36.59-64.05,6.71-134.53,32.28-193.34,70.17-57.84,37.26-98.92,82.59-112.71,124.36-6.66,20.3-15.11,43.71-24.9,70.81-31.21,86.43-73.94,204.8-96.53,331.63-9.28,36.23,2.27,64.56,34.31,84.29,35.21,21.68,93.54,32.71,173.37,32.76h.57c71.03,0,155.98-8.92,245.74-25.82,180.75-34.02,343.37-92.83,404.68-146.34,34.45-28.77,61.04-60.21,81.31-96.12,18.28-32.4,30.92-67.64,38.64-107.73,14.7-76.41,8.78-160.02,1.46-239.12h0c-6.89-80.74-40.3-149.41-87.2-179.2-16.35-10.39-33.75-15.63-51.44-15.63Z"/>
  </g>
  <g class="cls-54">
    <path class="cls-41" d="M726.23,1042.33c-61.84,0-107.56-8.37-136.02-24.92-27.06-15.74-37.49-38.57-31-67.88,11.39-112.86,52.61-237.28,82.71-328.14,4.72-14.26,9.18-27.72,13.09-39.84,13.69-42.24,49.4-84.77,100.55-119.77,51.58-35.28,113.21-58.91,173.54-66.53,41.71-3.52,157.29-17.39,330.11-70.21,25.61-7.76,51.5-3.52,74.87,12.29,40.76,27.57,69.82,87.56,75.84,156.55,6.27,64.58,11.83,139.23-1.65,207.94-14.24,72.62-48.4,131.22-104.43,179.17-27.26,24.7-76.25,50.8-141.64,75.48-62.28,23.5-134.79,44.09-209.69,59.54-77.35,15.95-150.8,25.01-212.41,26.19-4.71.09-9.34.13-13.88.13ZM1284.17,323.17c-8.1,0-16.27,1.23-24.4,3.69-27.65,8.45-83.82,24.88-149.34,39.93-68.79,15.81-129.72,26.02-181.12,30.35-60,7.58-121.33,31.09-172.66,66.21-50.8,34.76-86.25,76.94-99.81,118.78-3.91,12.12-8.37,25.59-13.09,39.86-30.08,90.79-71.27,215.12-82.63,327.79l-.02.11c-6.32,28.43,3.8,50.59,30.08,65.87,29.82,17.34,81.31,25.83,148.9,24.53,61.5-1.18,134.82-10.22,212.06-26.15,74.8-15.43,147.22-35.99,209.41-59.45,65.17-24.59,113.94-50.57,141.05-75.12,55.71-47.67,89.66-105.93,103.82-178.1,13.43-68.46,7.88-142.95,1.62-207.39h0c-5.97-68.45-34.71-127.89-75.01-155.15-15.44-10.45-32.01-15.74-48.84-15.74Z"/>
  </g>
  <g class="cls-48">
    <path class="cls-44" d="M746.07,993.54c-43.91,0-77.83-5.81-99-17.07-21.26-11.31-30.21-27.99-26.61-49.59-3.23-101.34,48.16-263.87,70.1-333.29,27.57-86.69,126.4-159.33,240.33-176.64,90.57-9.24,197.32-32.62,261.1-46.58,6.77-1.48,13.13-2.87,19-4.15,21.79-4.67,43.72.54,63.39,15.04,33.97,25.04,58.22,75.68,63.3,132.17,5.93,57.39,9.81,118.45-1.81,176.18-12.4,61.6-41.25,111.74-88.22,153.29-46.16,43.85-162.76,92.29-297.05,123.39-64.57,14.95-126.17,24.15-178.14,26.61-9.15.43-17.96.65-26.4.65ZM1226.52,366.29c-5.05,0-10.11.54-15.17,1.62-5.87,1.27-12.22,2.66-18.99,4.15-63.81,13.97-170.62,37.37-261.25,46.61-113.27,17.21-211.52,89.36-238.9,175.45-21.93,69.35-73.28,231.76-70.02,332.8v.09s-.01.08-.01.08c-3.5,20.83,5.15,36.93,25.7,47.86,24.97,13.28,68.03,18.89,124.51,16.23,51.87-2.45,113.37-11.63,177.83-26.56,134-31.04,250.29-79.31,296.27-122.98,104.3-92.26,101.39-212.63,89.48-328.02h0c-5.04-56.03-29.03-106.2-62.61-130.95-14.69-10.83-30.64-16.36-46.83-16.36Z"/>
  </g>
  <g class="cls-51">
    <path class="cls-45" d="M766.68,945.91c-26.84,0-48.36-3.2-62.84-9.72-15.59-7.03-23.04-17.76-22.14-31.89-8.64-27.58-7.03-74.61,4.77-139.79,8.6-47.49,23.04-105.39,39.63-158.86,26.75-85.77,103.97-148.19,206.57-166.98,35.96-4.55,73.39-10.02,109.59-15.31,46.82-6.84,91.04-13.29,120.5-15.95,24.8-2.14,49.17,10.34,68.62,35.13,18.44,23.5,30.84,56.46,34.05,90.44,8.73,77.77,3.53,118.03-1.97,144.42-10.54,50.56-34.1,92.24-72.01,127.41-38.69,39.13-131.67,82.07-242.65,112.03-70.89,19.14-134.78,29.08-182.12,29.08ZM1168.22,408.71c-1.77,0-3.54.08-5.32.23-29.42,2.65-73.61,9.1-120.41,15.94-36.21,5.29-73.65,10.75-109.58,15.3-101.98,18.68-178.76,80.7-205.33,165.91-16.57,53.41-31,111.25-39.59,158.68-11.78,65.04-13.38,111.88-4.77,139.19l.04.14v.14c-.92,13.49,6.21,23.76,21.21,30.53,39.7,17.91,133.17,10.46,243.92-19.44,110.73-29.89,203.45-72.67,241.98-111.64,37.69-34.96,61.09-76.37,71.57-126.61,10.43-50.02,6.52-103.2,1.94-143.94h0c-3.17-33.71-15.46-66.38-33.72-89.65-17.72-22.58-39.54-34.77-61.94-34.77Z"/>
  </g>
  <g class="cls-49">
    <path class="cls-42" d="M788.97,900.5c-11.1,0-20.47-1.01-27.74-3.08-10.63-3.04-16.76-8.28-18.21-15.59-20.1-15.49-18.78-68.07-14.12-109.52,5.26-46.75,17.5-104.55,32.74-154.64,13.17-43.09,33.28-76.67,61.49-102.67,28.81-26.55,65.22-44.42,111.32-54.65,69.81-11.38,140.5-15.99,180.12-11.75,19.29,2.15,38.07,14.65,52.88,35.18,13.85,19.21,23.23,44.26,25.72,68.73,8.17,64.62,8.97,147.35-57.92,214.18-30.96,34.16-100.92,71.87-187.11,100.83-62.99,21.17-121.18,32.98-159.18,32.98ZM1080.08,448.41c-39.84,0-92.85,4.72-145.36,13.28-45.82,10.16-82.02,27.93-110.65,54.31-28.03,25.83-48.02,59.21-61.11,102.06-28.5,93.61-53.2,237.04-18.9,262.83l.21.16.05.26c1.25,6.89,7.07,11.86,17.29,14.78,31.92,9.12,104.97-2.61,186.11-29.88,85.98-28.89,155.73-66.45,186.56-100.48,66.49-66.43,65.68-148.77,57.55-213.08v-.02c-2.47-24.24-11.76-49.06-25.48-68.08-14.58-20.22-33.02-32.51-51.92-34.62-9.73-1.04-21.33-1.54-34.35-1.54Z"/>
  </g>
  <g class="cls-59">
    <path class="cls-43" d="M815.72,861.2c-4.79,0-8.52-.61-11.01-1.88-7.99,1.16-14.68-1.31-19.89-7.31-15.25-17.56-14.98-61.34-12.07-94.99,3.46-40.03,12.61-87.62,24.46-127.31,13.43-44.89,28.38-74.79,48.48-96.96,21.43-23.64,50.22-39.75,90.58-50.7,46.09-10.24,97.18-7.18,130.17,7.79,29.57,13.57,50.94,52.45,54.51,82.2,9.37,61.48-4.72,114.15-41.86,156.53-13.8,17.34-35.3,35.42-63.87,53.73-24.74,15.85-54.13,31.37-85.02,44.87-48.35,21.14-92.5,34.01-114.47,34.01ZM804.91,858.09l.17.09c2.38,1.27,6,1.87,10.67,1.87,48.36,0,208.97-65.1,262.41-132.23,36.92-42.13,50.91-94.47,41.59-155.6v-.02c-3.53-29.43-24.63-67.88-53.83-81.28-32.77-14.87-83.57-17.9-129.4-7.72-40.11,10.88-68.71,26.87-89.99,50.34-19.97,22.03-34.84,51.79-48.22,96.5-11.83,39.62-20.95,87.12-24.41,127.08-2.89,33.42-3.19,76.87,11.78,94.11,4.97,5.72,11.37,8.04,19.02,6.88l.19-.03Z"/>
  </g>
  <g class="cls-57">
    <path class="cls-46" d="M844.47,843.97c-4.79,0-9.08-1.42-12.84-4.28-9.43-7.15-20.22-27.12-18.12-81.61,1.41-36.53,8.6-80.01,19.23-116.32,12.56-42.91,21.22-70.47,35.46-91.23,14.73-21.48,34.96-35.03,69.84-46.75,19.22-6.46,37.45-4.91,54.17,4.6,36.15,20.58,53.99,71.66,56.47,83.2,4.63,21.56,1.07,45.53-10.59,71.25-10.04,22.14-26.07,45.63-47.66,69.84-39.02,43.75-89.74,82.27-124.19,103.73-8.11,5.05-15.39,7.58-21.77,7.58ZM960.8,500.86c-7.3,0-14.78,1.28-22.44,3.86-34.65,11.65-54.74,25.08-69.34,46.37-14.15,20.65-22.79,48.13-35.32,90.95-19.38,66.2-31.06,174.4-1.47,196.86,8.4,6.38,19.66,5.25,33.47-3.35,34.39-21.42,85.02-59.87,123.97-103.55,21.52-24.13,37.5-47.54,47.49-69.59,11.57-25.52,15.11-49.28,10.53-70.62-2.46-11.46-20.16-62.15-55.99-82.54-9.81-5.58-20.15-8.38-30.92-8.38Z"/>
  </g>
</svg>